# xmcd
#
# Track frame offsets: 
#        150
#        17938
#        42480
#        65607
#        87068
#        101592
#        115370
#        131113
#        148312
#        166984
#        167402
#
# Disc length: 2419 seconds
#
# Revision: 0
# Processed by: cddbd v1.5.2PL0 Copyright (c) Steve Scherf et al.
# Submitted via: ExactAudioCopy v0.99pb5
#
DISCID=9b09710b
DTITLE=20TEN - Prince
DYEAR=2010
DGENRE=Pop - Funk
TTITLE0=Compassion
TTITLE1=Beginning Endlessly
TTITLE2=Future soul Song
TTITLE3=Sticky Like Glue
TTITLE4=Act Of God
TTITLE5=Lavaux
TTITLE6=Walk In Sand
TTITLE7=Sea Of Everything
TTITLE8=Everybody Loves Me
TTITLE9=Bonus Track [Untitled]
TTITLE10=Laydown [Hidden Track]
EXTD=
EXTT0=
EXTT1=
EXTT2=
EXTT3=
EXTT4=
EXTT5=
EXTT6=
EXTT7=
EXTT8=
EXTT9=
EXTT10=
PLAYORDER=
